<?xml version="1.0" encoding="utf-8"?>
<!-- Generator: Adobe Illustrator 26.5.0, SVG Export Plug-In . SVG Version: 6.00 Build 0)  -->
<svg version="1.0" id="Layer_1" xmlns="http://www.w3.org/2000/svg" xmlns:xlink="http://www.w3.org/1999/xlink" x="0px" y="0px"
	 viewBox="0 0 620.78 436" style="enable-background:new 0 0 620.78 436;" xml:space="preserve">
<style type="text/css">
	.st0{fill:#4D77CF;}
	.st1{fill:#4DABCF;}
</style>
<g>
	<path class="st0" d="M264.14,190c0.42,0.05,0.83,0.17,1.22,0.34c0.37,0.18,0.7,0.42,1,0.7c0.4,0.38,0.77,0.78,1.12,1.21
		l31.12,39.34c-0.13-1.25-0.21-2.48-0.27-3.66s-0.09-2.3-0.09-3.35v-34.73h13.4v65.52h-7.92c-1.03,0.03-2.05-0.15-3-0.54
		c-0.93-0.47-1.73-1.15-2.34-2l-30.9-39c0.1,1.13,0.17,2.25,0.23,3.35s0.09,2.12,0.09,3.08v35.12h-13.4v-65.53h8
		c0.56,0.01,1.12,0.05,1.67,0.13"/>
	<path class="st0" d="M333.7,208.73v29.58c-0.12,1.91,0.43,3.81,1.57,5.35c1.17,1.31,2.88,2.01,4.63,1.89
		c1.49,0.01,2.95-0.31,4.3-0.94c1.42-0.67,2.73-1.55,3.89-2.61v-33.27h13.94v46.62h-8.64c-1.55,0.13-2.99-0.85-3.43-2.34l-0.84-2.7
		c-0.87,0.85-1.81,1.65-2.79,2.37c-0.96,0.7-1.99,1.31-3.08,1.8c-1.15,0.51-2.34,0.91-3.57,1.18c-1.36,0.3-2.74,0.44-4.13,0.43
		c-2.32,0.04-4.62-0.41-6.75-1.33c-1.92-0.84-3.63-2.11-5-3.7c-1.38-1.66-2.42-3.57-3.05-5.63c-0.71-2.3-1.04-4.7-1-7.1v-29.6
		L333.7,208.73z"/>
	<path class="st0" d="M371.02,255.37v-46.64h8.64c0.77-0.03,1.53,0.17,2.18,0.58c0.6,0.42,1.04,1.04,1.23,1.75l0.75,2.52
		c0.76-0.8,1.57-1.55,2.43-2.25c0.84-0.68,1.76-1.26,2.72-1.75c2.12-1.08,4.48-1.63,6.86-1.6c2.51-0.1,4.98,0.67,7,2.18
		c1.9,1.53,3.35,3.54,4.2,5.82c0.74-1.38,1.71-2.63,2.86-3.69c1.09-0.99,2.32-1.82,3.64-2.46c1.32-0.63,2.7-1.1,4.13-1.4
		c1.43-0.29,2.89-0.44,4.35-0.45c2.42-0.04,4.83,0.37,7.1,1.2c1.98,0.73,3.76,1.92,5.2,3.46c1.44,1.61,2.52,3.52,3.17,5.58
		c0.76,2.43,1.12,4.96,1.08,7.5v29.63h-14v-29.61c0-4.83-2.07-7.25-6.2-7.24c-1.76-0.05-3.46,0.62-4.7,1.87
		c-1.33,1.46-2,3.4-1.86,5.37v29.63h-13.89v-29.63c0-2.67-0.52-4.54-1.57-5.63c-1.26-1.15-2.94-1.73-4.64-1.61
		c-1.24,0-2.46,0.29-3.57,0.85c-1.16,0.6-2.23,1.37-3.17,2.29v33.74L371.02,255.37z"/>
	<path class="st0" d="M461.85,233.47v21.9h-15.2v-65.52h23.11c4.03-0.09,8.04,0.46,11.9,1.63c3.01,0.92,5.79,2.45,8.18,4.5
		c2.1,1.85,3.73,4.18,4.75,6.79c1.02,2.7,1.53,5.56,1.5,8.45c0.03,3.07-0.5,6.12-1.58,9c-1.02,2.68-2.67,5.08-4.81,7
		c-2.38,2.08-5.18,3.63-8.2,4.56c-3.8,1.17-7.76,1.74-11.74,1.67L461.85,233.47z M461.85,222h7.91c4,0,6.81-0.93,8.55-2.83
		s2.61-4.5,2.61-7.91c0.02-1.39-0.21-2.78-0.68-4.09c-0.42-1.2-1.1-2.28-2-3.17c-0.99-0.93-2.18-1.63-3.47-2.05
		c-1.61-0.52-3.3-0.78-5-0.75h-7.91L461.85,222z"/>
	<path class="st0" d="M523.09,267.47c-0.32,0.79-0.84,1.47-1.5,2c-0.87,0.5-1.88,0.73-2.88,0.65h-10.45l9-18.88l-18.61-42.55h12.32
		c1.67-0.13,3.22,0.88,3.78,2.46l7.64,20.1c0.71,1.81,1.29,3.66,1.76,5.55c0.3-1,0.62-1.9,1-2.82s0.71-1.88,1-2.84l6.93-20
		c0.26-0.72,0.76-1.33,1.41-1.73c0.67-0.45,1.45-0.69,2.25-0.7h11.25L523.09,267.47z"/>
	<polygon class="st1" points="139.04,168.54 111.2,154.49 80.64,169.74 109.24,184.1 	"/>
	<polygon class="st1" points="151.81,174.98 181,189.72 150.72,204.93 122.08,190.55 	"/>
	<polygon class="st1" points="190.8,154.7 220.79,169.74 193.96,183.2 164.72,168.45 	"/>
	<polygon class="st1" points="177.89,148.22 150.89,134.68 124.18,148.01 152.01,162.04 	"/>
	<polygon class="st1" points="156.78,264.48 156.78,301.32 189.49,285 189.46,248.14 	"/>
	<polygon class="st1" points="189.44,235.28 189.41,198.81 156.78,215.02 156.78,251.51 	"/>
	<polygon class="st1" points="228.71,228.45 228.71,265.43 200.81,279.35 200.79,242.53 	"/>
	<polygon class="st1" points="228.71,215.51 228.71,179.27 200.76,193.16 200.78,229.71 	"/>
	<path class="st0" d="M145.24,215l-22-11.08v47.87c0,0-26.95-57.33-29.44-62.48c-0.53-0.68-1.22-1.22-2-1.57
		c-4.86-2.54-19-9.71-19-9.71v84.6l19.59,10.52v-44.24c0,0,26.63,51.22,26.9,51.79c0.27,0.57,2.94,5.95,5.81,7.85
		c3.8,2.52,20.12,12.34,20.12,12.34L145.24,215z"/>
</g>
</svg>
